Coordinates
version=1
nRows=8
nColumns=63
inDegrees=yes

Units are S.I. units (second, meters, Newtons, ...)
If the header above contains a line with 'inDegrees', this indicates whether rotational values are in degrees (yes) or radians (no).

endheader
time	pelvis_tilt	pelvis_list	pelvis_rotation	pelvis_tx	pelvis_ty	pelvis_tz	hip_flexion_r	hip_adduction_r	hip_rotation_r	knee_angle_r	knee_angle_r_beta	ankle_angle_r	subtalar_angle_r	mtp_angle_r	hip_flexion_l	hip_adduction_l	hip_rotation_l	knee_angle_l	knee_angle_l_beta	ankle_angle_l	subtalar_angle_l	mtp_angle_l	L5_S1_Flex_Ext	L5_S1_Lat_Bending	L5_S1_axial_rotation	L4_L5_Flex_Ext	L4_L5_Lat_Bending	L4_L5_axial_rotation	L3_L4_Flex_Ext	L3_L4_Lat_Bending	L3_L4_axial_rotation	L2_L3_Flex_Ext	L2_L3_Lat_Bending	L2_L3_axial_rotation	L1_L2_Flex_Ext	L1_L2_Lat_Bending	L1_L2_axial_rotation	L1_T12_Flex_Ext	L1_T12_Lat_Bending	L1_T12_axial_rotation	Abs_r3	Abs_r2	Abs_r1	Abs_t1	Abs_t2	neck_flexion	neck_bending	neck_rotation	arm_flex_r	arm_add_r	arm_rot_r	elbow_flex_r	pro_sup_r	wrist_flex_r	wrist_dev_r	arm_flex_l	arm_add_l	arm_rot_l	elbow_flex_l	pro_sup_l	wrist_flex_l	wrist_dev_l
      4.11666667	      1.89554878	     -8.06036438	     92.63540308	      0.12257857	      0.65232144	      0.80170436	      0.77771195	      2.89222074	      7.24902151	      5.44891602	      0.09510153	     29.05996311	      0.04138789	      0.00000000	      5.00416775	     -2.74071676	    -10.31169584	     13.92704306	      0.24307276	     33.14135144	      5.40346036	      0.00000000	     -0.09656321	      0.61239708	     -1.11270257	     -0.17932753	      0.81448812	     -1.18224648	     -0.15864369	      1.48898227	     -1.18224648	     -0.11036209	      1.48898227	     -0.97361475	     -0.08966859	      1.24880013	     -0.90407084	     -0.05517622	      0.94860308	     -0.83452693	     -0.68974133	      6.92755827	     -6.18851787	      0.00000000	      0.00000000	     22.34264989	     -5.66067377	     -0.68743490	     -8.86496624	    -19.52122183	     13.20584393	     47.36451368	     87.38990382	     -5.34305004	     10.44796226	      4.31732876	     -8.56713308	      1.45135846	     61.34123081	     73.73112673	    -18.97708522	     -4.62256691
      4.13333333	      1.89489004	     -8.02574387	     92.13833944	      0.12316619	      0.65230288	      0.80118103	      0.81947125	      2.85552698	      6.67645662	      5.64496304	      0.09852319	     29.41146674	      1.47473476	      0.00000000	      4.78809868	     -2.68657305	    -10.11048307	     13.74581810	      0.23990978	     33.05626264	      4.54222854	      0.00000000	     -0.10174157	      0.61651610	     -1.04004408	     -0.18894427	      0.81996641	     -1.10504683	     -0.16715122	      1.49899724	     -1.10504683	     -0.11628044	      1.49899724	     -0.91003857	     -0.09447722	      1.25719962	     -0.84503581	     -0.05813513	      0.95498343	     -0.78003306	     -0.72672986	      6.97415339	     -5.78441314	      0.00000000	      0.00000000	     22.27758147	     -5.59013631	     -0.35199805	     -8.92769955	    -19.67747416	     13.42695146	     47.68400211	     87.46721147	     -5.86000253	     10.85200015	      3.88683392	     -8.49229193	      1.16417777	     61.31990892	     71.08401139	    -17.72372938	     -4.80634623
      4.15000000	      1.85124319	     -7.95792949	     91.78793966	      0.12353072	      0.65240256	      0.80072070	      0.79892658	      2.78961505	      6.20189108	      5.79940580	      0.10121873	     29.66001079	      2.46782623	      0.00000000	      4.55161294	     -2.58147316	     -9.78324000	     13.54943189	      0.23648220	     32.92884208	      3.76602984	      0.00000000	     -0.11063806	      0.61357040	     -0.95654489	     -0.20546594	      0.81604863	     -1.01632895	     -0.18176727	      1.49183507	     -1.01632895	     -0.12644824	      1.49183507	     -0.83697678	     -0.10273850	      1.25119276	     -0.77719272	     -0.06321859	      0.95042055	     -0.71740867	     -0.79027660	      6.94083107	     -5.32001573	      0.00000000	      0.00000000	     21.94006005	     -5.86150325	     -0.76819499	     -9.06773523	    -19.65975435	     12.99803560	     47.75878784	     87.71597300	     -5.45670436	     10.89339922	      3.77700415	     -8.60239923	      1.50963460	     61.23713822	     68.96278474	    -17.59078919	     -4.42475500
      4.16666667	      1.84874501	     -7.95981074	     91.62585699	      0.12371634	      0.65242012	      0.80017831	      0.79026925	      2.77756052	      5.73887790	      5.87046227	      0.10245890	     29.75460577	      3.13549978	      0.00000000	      4.42593935	     -2.56216902	     -9.63987384	     13.40186930	      0.23390675	     32.87904896	      3.56513513	      0.00000000	     -0.10673643	      0.61463788	     -0.95020250	     -0.19822022	      0.81746838	     -1.00959016	     -0.17535727	      1.49443055	     -1.00959016	     -0.12198906	      1.49443055	     -0.83142719	     -0.09911544	      1.25336957	     -0.77203953	     -0.06098919	      0.95207408	     -0.71265188	     -0.76240761	      6.95290667	     -5.28474126	      0.00000000	      0.00000000	     21.52622082	     -5.75995076	     -0.72697398	     -8.91204283	    -19.89392942	     13.77676666	     47.68144323	     87.58755629	     -6.28541400	     10.58244334	      3.49489282	     -8.82735867	      1.60915671	     61.31980532	     67.78937095	    -17.35410724	     -3.89617525
      4.18333333	      1.72850560	     -7.92253110	     91.50635609	      0.12387286	      0.65238694	      0.79967513	      0.57515311	      2.80008579	      8.30416476	      5.66531834	      0.09887846	     29.03058888	     -0.40096115	      0.00000000	      4.27712651	     -2.39306249	     -9.22596697	     13.28965498	      0.23194824	     32.78484243	      3.06854830	      0.00000000	     -0.10530069	      0.60319992	     -0.92305029	     -0.19555390	      0.80225590	     -0.98074093	     -0.17299850	      1.46662029	     -0.98074093	     -0.12034815	      1.46662029	     -0.80766900	     -0.09778222	      1.23004528	     -0.74997836	     -0.06016881	      0.93435668	     -0.69228771	     -0.75215227	      6.82351816	     -5.13372878	      0.00000000	      0.00000000	     20.84866211	     -5.53775452	     -0.47933576	     -9.03150107	    -19.86828823	     13.58520737	     47.87872905	     87.76677400	     -6.62183298	     11.26177073	      3.32474536	     -8.91906027	      1.52086473	     61.52191326	     68.40645307	    -17.57344397	     -2.17910492
      4.20000000	      1.68989625	     -7.94017315	     91.40508957	      0.12388337	      0.65228367	      0.79939310	      0.66752652	      2.66644505	      6.09065753	      5.91144274	      0.10317414	     29.50795184	      2.55666594	      0.00000000	      4.19344614	     -2.32926966	     -9.03673020	     13.17250840	      0.22990364	     32.75406303	      2.89640845	      0.00000000	     -0.09758144	      0.60432984	     -0.90410228	     -0.18121849	      0.80375868	     -0.96060868	     -0.16031654	      1.46936757	     -0.96060868	     -0.11152582	      1.46936757	     -0.79108950	     -0.09061412	      1.23234940	     -0.73458310	     -0.05575803	      0.93610692	     -0.67807671	     -0.69701445	      6.83629999	     -5.02834567	      0.00000000	      0.00000000	     20.26782740	     -5.38984922	     -0.24140272	     -9.19793426	    -19.86411898	     13.42122865	     48.04711779	     87.76211472	     -7.38297159	     11.40431113	      3.19102652	     -9.24643845	      2.24252808	     61.63608483	     67.70363297	    -18.13984628	     -1.78169617
      4.21666667	      1.66248737	     -7.86356454	     91.00296294	      0.12438253	      0.65228255	      0.79914253	      0.57931754	      2.69276762	      6.87452196	      5.99708781	      0.10466893	     29.22189380	      1.83188722	      0.00000000	      3.98392450	     -2.34180614	     -9.49949733	     13.10467317	      0.22871969	     32.81247082	      3.10140685	      0.00000000	     -0.10744553	      0.60661481	     -0.82118629	     -0.19953710	      0.80679770	     -0.87251044	     -0.17652226	      1.47492326	     -0.87251044	     -0.12279950	      1.47492326	     -0.71853801	     -0.09977392	      1.23700893	     -0.66721386	     -0.06139438	      0.93964635	     -0.61588972	     -0.76747269	      6.86214810	     -4.56719180	      0.00000000	      0.00000000	     19.75108552	     -5.50528452	     -0.22963979	     -9.42202546	    -19.77474045	     12.74766672	     48.17348201	     87.83174412	     -6.94600744	     11.72508982	      3.08812380	     -9.42033661	      2.62616873	     61.74970537	     68.87063027	    -18.24444658	     -0.56600728
      4.23333333	      1.62874574	     -7.83391747	     90.90457557	      0.12423728	      0.65220584	      0.79905789	      0.52470910	      2.66106966	      6.85363925	      6.06754037	      0.10589856	     29.07513605	      1.83690267	      0.00000000	      3.93380551	     -2.30811750	     -9.50512354	     13.13798636	      0.22930112	     32.83957367	      3.07291729	      0.00000000	     -0.11183247	      0.60927917	     -0.82778094	     -0.20768408	      0.81034129	     -0.87951725	     -0.18372956	      1.48140137	     -0.87951725	     -0.12781333	      1.48140137	     -0.72430832	     -0.10384763	      1.24244208	     -0.67257202	     -0.06390107	      0.94377343	     -0.62083571	     -0.79880814	      6.89228779	     -4.60386926	      0.00000000	      0.00000000	     19.65634820	     -5.51565227	     -0.18971735	     -9.47045773	    -19.79113566	     12.70733591	     48.15436280	     87.81641052	     -6.96240888	     11.74467386	      2.85533997	     -9.40021327	      2.80523445	     61.75721881	     68.95101182	    -18.23148980	     -0.57850218
